<svg width="145" height="115" viewBox="0 0 145 115" fill="none" xmlns="http://www.w3.org/2000/svg">
<path opacity="0.1" d="M125.58 68.4307L128.907 52.7804L160.207 59.4336L156.881 75.0839L125.58 68.4307ZM123.327 125.203L102.279 101.1L114.33 90.5757L135.379 114.679L123.327 125.203ZM127.636 27.9742L120.907 13.4579L149.94 4.96203e-05L156.669 14.5163L127.636 27.9742ZM13.8729 93.759L20.5261 62.4583L12.7009 60.795C8.39706 59.8802 5.03843 57.5646 2.62503 53.8483C0.21162 50.132 -0.537675 46.1219 0.377138 41.818L3.70373 26.1676C4.61854 21.8638 6.93411 18.5052 10.6504 16.0918C14.3668 13.6784 18.3768 12.9291 22.6807 13.8439L53.9814 20.4971L98.0972 5.33798L78.1377 99.2402L44.0016 67.4482L36.1765 65.7849L29.5233 97.0856L13.8729 93.759ZM68.392 68.1342L76.5422 29.7908L54.9587 37.0622L19.3541 29.4942L16.0275 45.1446L51.6321 52.7126L68.392 68.1342ZM90.3706 80.1667L101.515 27.738C104.371 31.6166 106.396 36.0343 107.592 40.9912C108.788 45.9481 108.817 51.1001 107.68 56.4473C106.544 61.7945 104.421 66.4892 101.313 70.5312C98.2047 74.5733 94.5572 77.7852 90.3706 80.1667Z" fill="white"/>
</svg>
