<svg width="15" height="16" viewBox="0 0 15 16" fill="none" xmlns="http://www.w3.org/2000/svg">
<path d="M0.878906 1.35352H8.70117L8.52539 2.53125C8.24414 4.66406 7.06641 6.56836 4.99219 8.24414C4.61719 8.54883 4.21875 8.83008 3.79688 9.08789C3.10547 9.55664 2.34961 9.98438 1.5293 10.3711L1.07227 10.5469H1.05469C1.01953 10.5469 0.667969 10.2129 0 9.54492C4.16016 8.05664 6.54492 5.71875 7.1543 2.53125H0.878906V1.35352ZM2.35547 10.9863H3.58594C3.67969 10.9863 3.73242 11.0156 3.74414 11.0742C3.65039 11.4609 3.60352 11.6836 3.60352 11.7422V14.4844H14.168V15.6621H2.35547V10.9863ZM12.3047 0H13.5C13.6406 0 13.7109 0.0527344 13.7109 0.158203L13.5703 0.738281V0.755859V12.3047H12.3047V6.71484H7.75195V5.51953H12.3047V0Z" fill="#94A3B8"/>
</svg>
