<svg width="8" height="9" viewBox="0 0 8 9" fill="none" xmlns="http://www.w3.org/2000/svg">
<path d="M3.14453 0.205078C4.88932 0.205078 5.76172 0.690104 5.76172 1.66016C5.76172 2.61068 4.85677 3.08594 3.04688 3.08594C1.40625 3.08594 0.585938 2.60417 0.585938 1.64062C0.585938 0.9375 1.09701 0.488281 2.11914 0.292969C2.43815 0.234375 2.77995 0.205078 3.14453 0.205078ZM2.77344 0.859375C2.29167 0.859375 1.9043 0.957031 1.61133 1.15234C1.52018 1.21745 1.44531 1.28906 1.38672 1.36719C1.34115 1.45182 1.31836 1.53971 1.31836 1.63086C1.31836 2.17122 1.94987 2.44141 3.21289 2.44141C3.14128 2.44141 3.1901 2.44141 3.35938 2.44141C4.24479 2.44141 4.77865 2.25911 4.96094 1.89453C5 1.8099 5.01953 1.71875 5.01953 1.62109C5.01953 1.19792 4.60286 0.950521 3.76953 0.878906C3.64583 0.865885 3.51888 0.859375 3.38867 0.859375H2.77344ZM1.21094 5.55664H7.57812V7.45117H1.91406V8.04688H7.94922V8.70117H1.21094V6.79688H6.875V6.21094H1.21094V5.55664ZM6.875 0H7.53906C7.61719 0 7.65625 0.0292969 7.65625 0.0878906L7.57812 0.410156V0.419922V5.32227H6.875V5.07812H5.03906V4.46289H6.875V0ZM0 3.7793L6.19141 3.42773V4.05273C6.19141 4.05273 5.28971 4.12109 3.48633 4.25781V5.35156H2.77344V4.29688C1.55599 4.40104 0.93099 4.45312 0.898438 4.45312C0.859375 4.45312 0.732422 4.49219 0.517578 4.57031L0.322266 4.60938C0.218099 4.60938 0.110677 4.33268 0 3.7793Z" fill="#94A3B8"/>
</svg>
