<svg width="8" height="9" viewBox="0 0 8 9" fill="none" xmlns="http://www.w3.org/2000/svg">
<path d="M0.416667 8.33333C0.298611 8.33333 0.199653 8.2934 0.119792 8.21354C0.0399306 8.13368 0 8.03472 0 7.91667V6.25C0 6.02083 0.0815972 5.82465 0.244792 5.66146C0.407986 5.49826 0.604167 5.41667 0.833333 5.41667H6.66667C6.89583 5.41667 7.09201 5.49826 7.25521 5.66146C7.4184 5.82465 7.5 6.02083 7.5 6.25V7.91667C7.5 8.03472 7.46007 8.13368 7.38021 8.21354C7.30035 8.2934 7.20139 8.33333 7.08333 8.33333H0.416667ZM0.833333 4.58333V3.33333C0.833333 3.10417 0.914931 2.90799 1.07812 2.74479C1.24132 2.5816 1.4375 2.5 1.66667 2.5H3.33333V1.89583C3.20833 1.8125 3.10764 1.71181 3.03125 1.59375C2.95486 1.47569 2.91667 1.33333 2.91667 1.16667C2.91667 1.0625 2.9375 0.960069 2.97917 0.859375C3.02083 0.758681 3.08333 0.666667 3.16667 0.583333L3.75 0L4.33333 0.583333C4.41667 0.666667 4.47917 0.758681 4.52083 0.859375C4.5625 0.960069 4.58333 1.0625 4.58333 1.16667C4.58333 1.33333 4.54514 1.47569 4.46875 1.59375C4.39236 1.71181 4.29167 1.8125 4.16667 1.89583V2.5H5.83333C6.0625 2.5 6.25868 2.5816 6.42188 2.74479C6.58507 2.90799 6.66667 3.10417 6.66667 3.33333V4.58333H0.833333Z" fill="#B40064"/>
</svg>
