<svg width="10" height="9" viewBox="0 0 10 9" fill="none" xmlns="http://www.w3.org/2000/svg">
<path d="M1.64062 0.429688H4.59961V1.10352H1.64062V0.429688ZM0.263672 1.67969H5.95703V2.34375H0.263672V1.67969ZM3.41797 2.77344C4.32943 2.77344 4.9349 3.02083 5.23438 3.51562C5.32552 3.6849 5.38086 3.87695 5.40039 4.0918C5.40039 4.0918 5.40039 4.13086 5.40039 4.20898C5.40039 4.9056 5.00651 5.36133 4.21875 5.57617C3.94531 5.6543 3.64583 5.69336 3.32031 5.69336C2.44792 5.69336 1.83919 5.58919 1.49414 5.38086C1.09049 5.13346 0.888672 4.72982 0.888672 4.16992C0.888672 3.26497 1.66992 2.79948 3.23242 2.77344C3.29102 2.77344 3.35286 2.77344 3.41797 2.77344ZM2.90039 3.41797C2.17773 3.41797 1.75781 3.63281 1.64062 4.0625L1.62109 4.26758C1.62109 4.7819 2.12891 5.03906 3.14453 5.03906C4.16016 5.03906 4.66797 4.74609 4.66797 4.16016C4.66797 3.75 4.32617 3.50911 3.64258 3.4375C3.54492 3.42448 3.44076 3.41797 3.33008 3.41797H2.90039ZM6.89453 0H7.55859C7.63021 0 7.66602 0.0292969 7.66602 0.0878906L7.58789 0.429688V0.439453V4.14062H9.25781V4.79492H7.58789V8.91602H6.89453V0ZM2.8125 5.5957H3.52539V6.52344L6.32812 6.2793V6.91406C6.32812 6.91406 4.4987 7.07357 0.839844 7.39258C0.78125 7.39909 0.644531 7.44792 0.429688 7.53906C0.397135 7.55208 0.371094 7.55859 0.351562 7.55859C0.221354 7.55859 0.107422 7.3112 0.00976562 6.81641C0.00976562 6.77734 0.00651042 6.7513 0 6.73828L2.66602 6.58203C2.7181 6.57552 2.76693 6.57227 2.8125 6.57227V5.5957Z" fill="#94A3B8"/>
</svg>
