<svg width="13" height="9" viewBox="0 0 13 9" fill="none" xmlns="http://www.w3.org/2000/svg">
<path d="M5.75391 8.35547H0V7.59375H2.46094V1.37109C1.75 2.12109 0.992188 2.70703 0.1875 3.12891V2.09766C1.27344 1.54297 2.11328 0.886719 2.70703 0.128906H3.45703V7.59375H5.75391V8.35547ZM12.9961 4.27734C12.9961 5.38672 12.7383 6.34766 12.2227 7.16016C11.6523 8.03516 10.8828 8.47266 9.91406 8.47266C8.77344 8.47266 7.91406 7.91406 7.33594 6.79688C6.95312 6.05469 6.76172 5.20703 6.76172 4.25391C6.76172 3.00391 7.03906 1.98438 7.59375 1.19531C8.14062 0.398438 8.88281 0 9.82031 0C11.0391 0 11.9258 0.597656 12.4805 1.79297C12.8242 2.51172 12.9961 3.33984 12.9961 4.27734ZM11.9414 4.41797C11.9414 2.84766 11.6172 1.78125 10.9688 1.21875L10.6875 1.00781C10.4297 0.867188 10.1406 0.796875 9.82031 0.796875C8.83594 0.796875 8.21094 1.46875 7.94531 2.8125C7.85938 3.22656 7.81641 3.68359 7.81641 4.18359C7.81641 5.69922 8.14062 6.73438 8.78906 7.28906C9.10156 7.55469 9.47656 7.6875 9.91406 7.6875C10.8359 7.6875 11.4531 7.10156 11.7656 5.92969C11.8828 5.46875 11.9414 4.96484 11.9414 4.41797Z" fill="#475569"/>
</svg>
