<svg width="15" height="16" viewBox="0 0 15 16" fill="none" xmlns="http://www.w3.org/2000/svg">
<path d="M4.44727 0.580078C5.98242 0.580078 7.10156 1.14258 7.80469 2.26758L8.12109 2.88281L8.33203 3.62109C8.39062 3.98438 8.41992 4.32422 8.41992 4.64062C8.41992 6.03516 7.79297 7.04297 6.53906 7.66406C5.83594 8.01562 5.04492 8.19141 4.16602 8.19141C2.74805 8.19141 1.64062 7.71094 0.84375 6.75C0.28125 6.05859 0 5.21484 0 4.21875C0 2.87109 0.626953 1.86328 1.88086 1.19531C2.63086 0.785156 3.48633 0.580078 4.44727 0.580078ZM4.00781 1.75781C3.08203 1.75781 2.35547 2.11523 1.82812 2.83008C1.48828 3.27539 1.31836 3.79102 1.31836 4.37695C1.31836 5.33789 1.7168 6.07031 2.51367 6.57422C2.99414 6.86719 3.53906 7.01367 4.14844 7.01367C5.75391 7.01367 6.70898 6.38672 7.01367 5.13281C7.08398 4.85156 7.11914 4.55859 7.11914 4.25391C7.11914 3.31641 6.71484 2.61328 5.90625 2.14453C5.46094 1.88672 4.96289 1.75781 4.41211 1.75781H4.00781ZM2.10938 9.52734H13.5703V13.166H3.375V14.4844H14.0625V15.6621H2.10938V11.9883H12.3047V10.6875H2.10938V9.52734ZM12.3047 0H13.5176C13.6465 0 13.7109 0.046875 13.7109 0.140625L13.5703 0.720703V0.738281V8.82422H12.3047V0Z" fill="#94A3B8"/>
</svg>
