<svg width="8" height="9" viewBox="0 0 8 9" fill="none" xmlns="http://www.w3.org/2000/svg">
<path d="M2.4707 0.322266C3.32357 0.322266 3.94531 0.634766 4.33594 1.25977L4.51172 1.60156L4.62891 2.01172C4.66146 2.21354 4.67773 2.40234 4.67773 2.57812C4.67773 3.35286 4.32943 3.91276 3.63281 4.25781C3.24219 4.45312 2.80273 4.55078 2.31445 4.55078C1.52669 4.55078 0.911458 4.28385 0.46875 3.75C0.15625 3.36589 0 2.89714 0 2.34375C0 1.59505 0.348307 1.03516 1.04492 0.664062C1.46159 0.436198 1.93685 0.322266 2.4707 0.322266ZM2.22656 0.976562C1.71224 0.976562 1.30859 1.17513 1.01562 1.57227C0.826823 1.81966 0.732422 2.10612 0.732422 2.43164C0.732422 2.96549 0.953776 3.3724 1.39648 3.65234C1.66341 3.8151 1.96615 3.89648 2.30469 3.89648C3.19661 3.89648 3.72721 3.54818 3.89648 2.85156C3.93555 2.69531 3.95508 2.53255 3.95508 2.36328C3.95508 1.84245 3.73047 1.45182 3.28125 1.19141C3.03385 1.04818 2.75716 0.976562 2.45117 0.976562H2.22656ZM1.17188 5.29297H7.53906V7.31445H1.875V8.04688H7.8125V8.70117H1.17188V6.66016H6.83594V5.9375H1.17188V5.29297ZM6.83594 0H7.50977C7.58138 0 7.61719 0.0260417 7.61719 0.078125L7.53906 0.400391V0.410156V4.90234H6.83594V0Z" fill="#94A3B8"/>
</svg>
