<svg width="9" height="9" viewBox="0 0 9 9" fill="none" xmlns="http://www.w3.org/2000/svg">
<path d="M3.80859 0H4.59961C4.69076 0 4.73633 0.0292969 4.73633 0.0878906L4.63867 0.400391V0.410156C4.63867 0.644531 4.87305 0.950521 5.3418 1.32812C5.9668 1.82292 6.85872 2.24935 8.01758 2.60742C8.14128 2.63997 8.29102 2.68229 8.4668 2.73438C8.44075 2.79948 8.26172 2.96549 7.92969 3.23242C7.85807 3.29753 7.81901 3.33008 7.8125 3.33008C7.7474 3.33008 7.63997 3.29427 7.49023 3.22266C6.63086 2.91016 5.91471 2.53581 5.3418 2.09961C5.10742 1.92383 4.83398 1.69596 4.52148 1.41602C4.3457 1.24023 4.25456 1.15234 4.24805 1.15234C4.23503 1.15234 4.14388 1.24674 3.97461 1.43555C3.35612 2.13867 2.39909 2.72135 1.10352 3.18359L0.703125 3.32031C0.664062 3.32031 0.485026 3.17383 0.166016 2.88086C0.0878906 2.79622 0.0423177 2.74414 0.0292969 2.72461C2.36654 2.19076 3.61979 1.36719 3.78906 0.253906C3.80208 0.169271 3.80859 0.0846354 3.80859 0ZM0 4.51172H8.50586V5.16602H4.59961V8.65234H3.90625V5.16602H0V4.51172Z" fill="#94A3B8"/>
</svg>
