<svg width="16" height="17" viewBox="0 0 16 17" fill="none" xmlns="http://www.w3.org/2000/svg">
<path d="M11.6667 16.6667V14.1667H9.16667V12.5H11.6667V10H13.3333V12.5H15.8333V14.1667H13.3333V16.6667H11.6667ZM1.66667 15C1.20833 15 0.815972 14.8368 0.489583 14.5104C0.163194 14.184 0 13.7917 0 13.3333V3.33333C0 2.875 0.163194 2.48264 0.489583 2.15625C0.815972 1.82986 1.20833 1.66667 1.66667 1.66667H2.5V0H4.16667V1.66667H9.16667V0H10.8333V1.66667H11.6667C12.125 1.66667 12.5174 1.82986 12.8438 2.15625C13.1701 2.48264 13.3333 2.875 13.3333 3.33333V8.41667C13.0556 8.375 12.7778 8.35417 12.5 8.35417C12.2222 8.35417 11.9444 8.375 11.6667 8.41667V6.66667H1.66667V13.3333H7.5C7.5 13.6111 7.52083 13.8889 7.5625 14.1667C7.60417 14.4444 7.68056 14.7222 7.79167 15H1.66667ZM1.66667 5H11.6667V3.33333H1.66667V5ZM1.66667 5V3.33333V5Z" fill="#46464F"/>
</svg>
