<svg width="10" height="7" viewBox="0 0 10 7" fill="none" xmlns="http://www.w3.org/2000/svg">
<path d="M3.125 6.25C2.25833 6.25 1.52083 5.94583 0.9125 5.3375C0.304167 4.72917 0 3.99167 0 3.125C0 2.25833 0.304167 1.52083 0.9125 0.9125C1.52083 0.304167 2.25833 0 3.125 0H7.75C8.375 0 8.90625 0.21875 9.34375 0.65625C9.78125 1.09375 10 1.625 10 2.25C10 2.875 9.78125 3.40625 9.34375 3.84375C8.90625 4.28125 8.375 4.5 7.75 4.5H3.375C2.99167 4.5 2.66667 4.36667 2.4 4.1C2.13333 3.83333 2 3.50833 2 3.125C2 2.74167 2.13333 2.41667 2.4 2.15C2.66667 1.88333 2.99167 1.75 3.375 1.75H8V2.75H3.375C3.26667 2.75 3.17708 2.78542 3.10625 2.85625C3.03542 2.92708 3 3.01667 3 3.125C3 3.23333 3.03542 3.32292 3.10625 3.39375C3.17708 3.46458 3.26667 3.5 3.375 3.5H7.75C8.1 3.49167 8.39583 3.36875 8.6375 3.13125C8.87917 2.89375 9 2.6 9 2.25C9 1.9 8.87917 1.60417 8.6375 1.3625C8.39583 1.12083 8.1 1 7.75 1H3.125C2.53333 0.991667 2.03125 1.19583 1.61875 1.6125C1.20625 2.02917 1 2.53333 1 3.125C1 3.70833 1.20625 4.20417 1.61875 4.6125C2.03125 5.02083 2.53333 5.23333 3.125 5.25H8V6.25H3.125Z" fill="#94A3B8"/>
</svg>
